<svg width="349" height="323" viewBox="0 0 349 323" fill="none" xmlns="http://www.w3.org/2000/svg">
<g opacity="0.1">
<path opacity="0.2" fill-rule="evenodd" clip-rule="evenodd" d="M346.44 161.5C346.44 249.449 269.48 321 174.22 321C78.96 321 2 249.449 2 161.5C2 73.5507 78.96 2 174.22 2C219.319 2 260.316 18.037 290.987 44.2586C290.588 45.0865 290.366 46.0038 290.366 46.9691C290.366 50.6447 293.581 53.6243 297.546 53.6243C298.595 53.6243 299.593 53.4154 300.491 53.0401C329.018 81.5208 346.44 119.654 346.44 161.5ZM292.127 42.6034C293.443 41.2006 295.383 40.3138 297.546 40.3138C301.511 40.3138 304.725 43.2935 304.725 46.9691C304.725 48.9699 303.773 50.7645 302.265 51.9845C330.928 80.7683 348.44 119.238 348.44 161.5C348.44 250.694 270.439 323 174.22 323C78.0009 323 0 250.694 0 161.5C0 72.306 78.0009 0 174.22 0C219.695 0 261.101 16.1513 292.127 42.6034ZM233.553 264.611C215.88 273.348 195.687 278.305 174.22 278.305C104.397 278.305 48.0578 225.869 48.0578 161.5C48.0578 97.1307 104.397 44.6954 174.22 44.6954C244.042 44.6954 300.381 97.1307 300.381 161.5C300.381 201.537 278.586 236.957 245.307 258.014C244.035 256.956 242.355 256.313 240.512 256.313C236.547 256.313 233.333 259.292 233.333 262.968C233.333 263.535 233.409 264.086 233.553 264.611ZM234.379 266.429C216.44 275.286 195.962 280.305 174.22 280.305C103.438 280.305 46.0578 227.114 46.0578 161.5C46.0578 95.886 103.438 42.6954 174.22 42.6954C245.001 42.6954 302.381 95.886 302.381 161.5C302.381 202.195 280.309 238.112 246.656 259.522C247.313 260.527 247.692 261.707 247.692 262.968C247.692 266.643 244.477 269.623 240.512 269.623C237.915 269.623 235.64 268.345 234.379 266.429ZM174.22 228.184C214.181 228.184 246.313 198.188 246.313 161.5C246.313 157.286 245.889 153.161 245.079 149.159C244.747 149.202 244.408 149.225 244.063 149.225C240.098 149.225 236.884 146.245 236.884 142.57C236.884 139.882 238.602 137.567 241.076 136.516C230.406 112.119 204.571 94.8161 174.22 94.8161C134.258 94.8161 102.126 124.812 102.126 161.5C102.126 198.188 134.258 228.184 174.22 228.184ZM248.313 161.5C248.313 157.104 247.868 152.804 247.016 148.638C249.508 147.594 251.243 145.269 251.243 142.57C251.243 138.894 248.028 135.914 244.063 135.914C243.713 135.914 243.368 135.938 243.031 135.983C232.104 110.685 205.413 92.8161 174.22 92.8161C133.299 92.8161 100.126 123.567 100.126 161.5C100.126 199.433 133.299 230.184 174.22 230.184C215.141 230.184 248.313 199.433 248.313 161.5Z" fill="white"/>
</g>
</svg>
